<svg width="225" height="100" viewBox="0 0 225 100" fill="none" xmlns="http://www.w3.org/2000/svg">
<path d="M62.3239 18.4087H220.775C223.108 18.4087 225 20.3004 225 22.634V71.2256H62.3239V18.4087Z" fill="#237067"/>
<path d="M63.3803 44.8169H225V59.1757C225 65.8305 219.605 71.2253 212.95 71.2253H63.3803V44.8169Z" fill="#278075"/>
<path d="M101.131 41.4653H105.468L111.045 23.775H107.999L103.269 38.5907L98.6006 23.775H95.5539L101.131 41.4653ZM110.814 26.1829H113.775V23.4679H110.814V26.1829ZM110.814 41.4653H113.775V28.1976H110.814V41.4653ZM115.612 41.4653H118.585V34.7209C118.585 33.9511 118.724 33.2672 119.003 32.6693C119.289 32.0715 119.736 31.6087 120.342 31.2811C120.751 31.0436 121.21 30.9044 121.718 30.8634C122.225 30.8143 122.68 30.8471 123.081 30.9617V28.1976C122.483 28.1075 121.869 28.1198 121.238 28.2345C120.608 28.3409 120.047 28.5621 119.555 28.8979C119.277 29.0698 119.027 29.2787 118.806 29.5244C118.585 29.7619 118.392 30.0281 118.229 30.3229V28.1976H115.612V41.4653ZM131.359 41.4653V38.9838C130.532 39.1066 129.795 39.1394 129.148 39.0821C128.501 39.0247 128.03 38.7504 127.735 38.259C127.579 38.0051 127.493 37.6775 127.477 37.2762C127.469 36.8667 127.465 36.3998 127.465 35.8757V30.5195H131.359V28.1976H127.465V24.5121H124.516V28.1976H122.109V30.5195H124.516V36.0477C124.516 36.8093 124.525 37.4891 124.541 38.087C124.557 38.6767 124.717 39.2581 125.02 39.8314C125.364 40.4621 125.868 40.9248 126.531 41.2196C127.195 41.5063 127.944 41.6578 128.779 41.6742C129.623 41.6987 130.483 41.6291 131.359 41.4653ZM137.345 41.8462C138.303 41.8462 139.142 41.6824 139.863 41.3548C140.592 41.019 141.198 40.5644 141.681 39.9911V41.4653H144.298V28.1976H141.325V35.0157C141.325 36.0886 141.169 36.9199 140.858 37.5096C140.555 38.0911 140.166 38.4965 139.691 38.7258C139.216 38.9469 138.725 39.0575 138.217 39.0575C137.513 39.0575 136.952 38.906 136.534 38.6029C136.116 38.2917 135.805 37.9027 135.6 37.4359C135.404 36.9609 135.273 36.4695 135.207 35.9617C135.15 35.4539 135.121 34.9953 135.121 34.5858V28.1976H132.124V35.6054C132.124 35.9166 132.148 36.3302 132.197 36.8462C132.255 37.3622 132.373 37.9068 132.554 38.4801C132.734 39.0534 133.012 39.598 133.389 40.114C133.766 40.6218 134.274 41.0395 134.912 41.3671C135.559 41.6865 136.37 41.8462 137.345 41.8462ZM149.617 41.8339C150.673 41.8339 151.57 41.6619 152.307 41.3179C153.052 40.9657 153.708 40.4211 154.273 39.684V41.4653H156.865V33.3204C156.865 32.7471 156.84 32.2189 156.791 31.7357C156.742 31.2443 156.599 30.7652 156.361 30.2983C155.927 29.422 155.26 28.7914 154.359 28.4065C153.466 28.0215 152.43 27.8291 151.251 27.8291C149.695 27.8291 148.454 28.169 147.528 28.8487C146.603 29.5285 145.976 30.4294 145.649 31.5514L148.351 32.3991C148.573 31.7193 148.962 31.2402 149.519 30.9617C150.075 30.6833 150.653 30.544 151.251 30.544C152.152 30.544 152.815 30.7283 153.241 31.0969C153.667 31.4572 153.908 32.0182 153.966 32.7799C152.803 32.9519 151.722 33.1198 150.722 33.2836C149.731 33.4392 148.888 33.6316 148.192 33.861C147.143 34.2213 146.378 34.7332 145.894 35.3966C145.411 36.0518 145.17 36.8626 145.17 37.829C145.17 38.5579 145.338 39.2254 145.673 39.8314C146.017 40.4375 146.521 40.9248 147.184 41.2933C147.848 41.6537 148.659 41.8339 149.617 41.8339ZM150.206 39.4752C149.51 39.4752 148.978 39.3155 148.609 38.9961C148.249 38.6767 148.069 38.2753 148.069 37.7921C148.069 37.3581 148.208 37.0059 148.487 36.7356C148.773 36.4654 149.17 36.2361 149.678 36.0477C150.145 35.8921 150.706 35.7569 151.361 35.6423C152.016 35.5194 152.872 35.3761 153.929 35.2123C153.921 35.5235 153.9 35.8716 153.867 36.2565C153.835 36.6333 153.757 36.9731 153.634 37.2762C153.536 37.5792 153.343 37.9027 153.057 38.2467C152.778 38.5907 152.401 38.8814 151.926 39.1189C151.451 39.3564 150.878 39.4752 150.206 39.4752ZM158.466 41.4653H161.427V23.4065H158.466V41.4653ZM96.4606 67.8339C98.4917 67.8339 100.187 67.3261 101.547 66.3105C102.914 65.2868 103.873 63.9109 104.421 62.1828L101.436 61.3597C101.092 62.5063 100.506 63.4072 99.6793 64.0624C98.8521 64.7176 97.7792 65.0452 96.4606 65.0452C94.6834 65.0452 93.3443 64.4596 92.4434 63.2885C91.5507 62.1091 91.1044 60.553 91.1044 58.6202C91.1126 56.6874 91.563 55.1354 92.4557 53.9642C93.3484 52.7849 94.6834 52.1952 96.4606 52.1952C97.7792 52.1952 98.8521 52.5228 99.6793 53.178C100.506 53.8332 101.092 54.7341 101.436 55.8807L104.421 55.0576C103.873 53.3213 102.914 51.9454 101.547 50.9298C100.187 49.9143 98.4917 49.4065 96.4606 49.4065C94.6998 49.4065 93.1846 49.7955 91.9152 50.5736C90.6539 51.3434 89.6834 52.4204 89.0037 53.8045C88.3321 55.1804 87.9963 56.7856 87.9963 58.6202C87.9963 60.4465 88.3321 62.0518 89.0037 63.4359C89.6834 64.82 90.6539 65.9011 91.9152 66.6791C93.1846 67.449 94.6998 67.8339 96.4606 67.8339ZM111.136 67.8339C112.462 67.8339 113.621 67.539 114.612 66.9494C115.603 66.3515 116.373 65.5284 116.922 64.4801C117.479 63.4236 117.757 62.2074 117.757 60.8315C117.757 59.4638 117.483 58.2557 116.934 57.2074C116.385 56.1509 115.616 55.3237 114.625 54.7259C113.634 54.128 112.471 53.8291 111.136 53.8291C109.834 53.8291 108.687 54.1239 107.696 54.7136C106.705 55.3033 105.931 56.1223 105.374 57.1706C104.817 58.2189 104.539 59.4392 104.539 60.8315C104.539 62.1992 104.809 63.4113 105.35 64.4678C105.898 65.5161 106.668 66.3392 107.659 66.9371C108.65 67.5349 109.809 67.8339 111.136 67.8339ZM111.136 65.0575C109.997 65.0575 109.133 64.6767 108.544 63.915C107.962 63.1451 107.671 62.1173 107.671 60.8315C107.671 59.5784 107.95 58.5629 108.507 57.7848C109.072 56.9986 109.948 56.6055 111.136 56.6055C112.299 56.6055 113.171 56.9904 113.752 57.7602C114.334 58.5219 114.625 59.5457 114.625 60.8315C114.625 62.0763 114.334 63.0919 113.752 63.8781C113.179 64.6644 112.307 65.0575 111.136 65.0575ZM118.597 67.4653H121.594V60.6472C121.594 59.5743 121.746 58.7471 122.049 58.1656C122.36 57.576 122.753 57.1706 123.228 56.9494C123.711 56.7201 124.203 56.6055 124.702 56.6055C125.407 56.6055 125.968 56.7611 126.385 57.0723C126.803 57.3753 127.11 57.7643 127.307 58.2394C127.511 58.7062 127.642 59.1935 127.7 59.7013C127.765 60.209 127.798 60.6677 127.798 61.0772V67.4653H130.796V60.0575C130.796 59.7463 130.767 59.3327 130.71 58.8167C130.66 58.3008 130.546 57.7561 130.366 57.1829C130.185 56.6096 129.907 56.069 129.53 55.5612C129.154 55.0453 128.642 54.6276 127.995 54.3082C127.356 53.9806 126.549 53.8168 125.575 53.8168C124.616 53.8168 123.773 53.9847 123.044 54.3205C122.323 54.6481 121.721 55.0985 121.238 55.6718V54.1976H118.597V67.4653ZM137.281 67.8339C138.993 67.8339 140.332 67.453 141.299 66.6914C142.273 65.9297 142.761 64.8814 142.761 63.5464C142.761 62.5145 142.433 61.7037 141.778 61.114C141.131 60.5244 140.013 60.0248 138.424 59.6153C137.392 59.3532 136.614 59.1321 136.09 58.9519C135.574 58.7717 135.23 58.5915 135.058 58.4113C134.886 58.2312 134.8 58.0141 134.8 57.7602C134.8 57.318 135.013 56.974 135.439 56.7283C135.865 56.4744 136.426 56.3639 137.122 56.3966C137.843 56.4376 138.42 56.6218 138.854 56.9494C139.296 57.277 139.558 57.7234 139.64 58.2885L142.662 57.748C142.498 56.5522 141.913 55.6022 140.906 54.8979C139.898 54.1853 138.621 53.8291 137.073 53.8291C135.492 53.8291 134.227 54.1976 133.277 54.9347C132.327 55.6718 131.852 56.6628 131.852 57.9077C131.852 58.8986 132.183 59.6808 132.847 60.2541C133.518 60.8274 134.685 61.3311 136.348 61.7651C137.347 62.0272 138.084 62.2483 138.559 62.4285C139.042 62.6005 139.358 62.7766 139.505 62.9568C139.652 63.1369 139.726 63.3785 139.726 63.6816C139.726 64.173 139.53 64.562 139.137 64.8486C138.743 65.1271 138.195 65.2663 137.49 65.2663C136.68 65.2663 136.004 65.078 135.463 64.7012C134.931 64.3245 134.591 63.8085 134.444 63.1533L131.422 63.6202C131.643 64.9551 132.265 65.9911 133.289 66.7282C134.313 67.4653 135.644 67.8339 137.281 67.8339ZM148.584 67.8462C149.542 67.8462 150.382 67.6824 151.102 67.3548C151.831 67.019 152.437 66.5644 152.921 65.9911V67.4653H155.537V54.1976H152.564V61.0157C152.564 62.0886 152.409 62.9199 152.097 63.5096C151.794 64.0911 151.405 64.4965 150.93 64.7258C150.455 64.9469 149.964 65.0575 149.456 65.0575C148.752 65.0575 148.191 64.906 147.773 64.6029C147.356 64.2917 147.044 63.9027 146.84 63.4359C146.643 62.9609 146.512 62.4695 146.446 61.9617C146.389 61.4539 146.36 60.9953 146.36 60.5858V54.1976H143.363V61.6054C143.363 61.9166 143.387 62.3302 143.437 62.8462C143.494 63.3622 143.613 63.9068 143.793 64.4801C143.973 65.0534 144.252 65.598 144.628 66.114C145.005 66.6218 145.513 67.0395 146.152 67.3671C146.799 67.6865 147.609 67.8462 148.584 67.8462ZM157.392 67.4653H160.352V49.4065H157.392V67.4653ZM169.966 67.4653V64.9838C169.139 65.1066 168.402 65.1394 167.755 65.0821C167.108 65.0247 166.637 64.7504 166.342 64.259C166.186 64.0051 166.1 63.6775 166.084 63.2762C166.076 62.8667 166.072 62.3998 166.072 61.8757V56.5195H169.966V54.1976H166.072V50.5121H163.123V54.1976H160.715V56.5195H163.123V62.0477C163.123 62.8093 163.131 63.4891 163.148 64.087C163.164 64.6767 163.324 65.2581 163.627 65.8314C163.971 66.4621 164.475 66.9248 165.138 67.2196C165.801 67.5063 166.551 67.6578 167.386 67.6742C168.23 67.6987 169.09 67.6291 169.966 67.4653ZM174.686 67.8339C175.743 67.8339 176.64 67.6619 177.377 67.3179C178.122 66.9657 178.777 66.4211 179.342 65.684V67.4653H181.934V59.3204C181.934 58.7471 181.91 58.2189 181.861 57.7357C181.811 57.2443 181.668 56.7652 181.431 56.2983C180.997 55.422 180.329 54.7914 179.428 54.4065C178.535 54.0215 177.499 53.8291 176.32 53.8291C174.764 53.8291 173.523 54.169 172.598 54.8487C171.672 55.5285 171.046 56.4294 170.718 57.5514L173.421 58.3991C173.642 57.7193 174.031 57.2402 174.588 56.9617C175.145 56.6833 175.722 56.544 176.32 56.544C177.221 56.544 177.884 56.7283 178.31 57.0969C178.736 57.4572 178.978 58.0182 179.035 58.7799C177.872 58.9519 176.791 59.1198 175.792 59.2836C174.801 59.4392 173.957 59.6316 173.261 59.861C172.213 60.2213 171.447 60.7332 170.964 61.3966C170.481 62.0518 170.239 62.8626 170.239 63.829C170.239 64.5579 170.407 65.2254 170.743 65.8314C171.087 66.4375 171.59 66.9248 172.254 67.2933C172.917 67.6537 173.728 67.8339 174.686 67.8339ZM175.276 65.4752C174.58 65.4752 174.047 65.3155 173.679 64.9961C173.318 64.6767 173.138 64.2753 173.138 63.7921C173.138 63.3581 173.278 63.0059 173.556 62.7356C173.843 62.4654 174.24 62.2361 174.748 62.0477C175.214 61.8921 175.775 61.7569 176.431 61.6423C177.086 61.5194 177.942 61.3761 178.998 61.2123C178.99 61.5235 178.97 61.8716 178.937 62.2565C178.904 62.6333 178.826 62.9731 178.703 63.2762C178.605 63.5792 178.413 63.9027 178.126 64.2467C177.848 64.5907 177.471 64.8814 176.996 65.1189C176.521 65.3564 175.947 65.4752 175.276 65.4752ZM183.265 67.4653H186.263V60.6472C186.263 59.5743 186.414 58.7471 186.717 58.1656C187.029 57.576 187.422 57.1706 187.897 56.9494C188.38 56.7201 188.871 56.6055 189.371 56.6055C190.075 56.6055 190.636 56.7611 191.054 57.0723C191.472 57.3753 191.779 57.7643 191.975 58.2394C192.18 58.7062 192.311 59.1935 192.368 59.7013C192.434 60.209 192.467 60.6677 192.467 61.0772V67.4653H195.464V60.0575C195.464 59.7463 195.436 59.3327 195.378 58.8167C195.329 58.3008 195.214 57.7561 195.034 57.1829C194.854 56.6096 194.576 56.069 194.199 55.5612C193.822 55.0453 193.31 54.6276 192.663 54.3082C192.024 53.9806 191.218 53.8168 190.243 53.8168C189.285 53.8168 188.441 53.9847 187.712 54.3205C186.992 54.6481 186.39 55.0985 185.907 55.6718V54.1976H183.265V67.4653ZM202.373 67.8339C203.855 67.8339 205.108 67.4735 206.132 66.7528C207.156 66.0239 207.873 64.9838 208.282 63.6324L205.26 62.9568C205.031 63.6365 204.687 64.1566 204.228 64.517C203.778 64.8773 203.159 65.0575 202.373 65.0575C201.259 65.0575 200.42 64.6685 199.855 63.8904C199.298 63.1124 199.015 62.0927 199.007 60.8315C199.015 59.6112 199.285 58.6038 199.818 57.8094C200.358 57.0068 201.21 56.6055 202.373 56.6055C203.053 56.6055 203.659 56.8061 204.191 57.2074C204.723 57.6005 205.104 58.1534 205.334 58.8659L208.282 58.0674C207.971 56.757 207.291 55.725 206.243 54.9716C205.194 54.2099 203.917 53.8291 202.41 53.8291C201.067 53.8291 199.908 54.1321 198.933 54.7382C197.959 55.336 197.205 56.1632 196.673 57.2197C196.149 58.268 195.882 59.4719 195.874 60.8315C195.882 62.1664 196.14 63.3622 196.648 64.4187C197.164 65.4752 197.905 66.3105 198.872 66.9248C199.838 67.5309 201.005 67.8339 202.373 67.8339ZM210.166 73.3621H212.942L220.338 54.1976H217.377L213.777 63.6939L210.067 54.1976H206.984L212.352 67.3671L210.166 73.3621Z" fill="white"/>
<path d="M169.416 41.4653H180.841V38.6889H172.377V33.689H179.367V30.9126H172.377V26.5514H180.841V23.775H169.416V41.4653ZM184.28 41.4653H189.919C190.058 41.4653 190.349 41.4612 190.791 41.453C191.241 41.4449 191.667 41.4162 192.068 41.3671C193.477 41.1869 194.665 40.6914 195.631 39.8806C196.598 39.0616 197.331 38.0215 197.83 36.7602C198.33 35.499 198.58 34.1189 198.58 32.6202C198.58 31.1214 198.33 29.7414 197.83 28.4802C197.331 27.2189 196.598 26.1788 195.631 25.3598C194.665 24.5408 193.477 24.0453 192.068 23.8733C191.659 23.8242 191.233 23.7955 190.791 23.7873C190.357 23.7791 190.066 23.775 189.919 23.775H184.28V41.4653ZM187.29 38.6767V26.5637H189.919C190.164 26.5637 190.476 26.5719 190.852 26.5883C191.229 26.5965 191.569 26.6333 191.872 26.6989C192.691 26.8545 193.363 27.2189 193.887 27.7922C194.411 28.3655 194.8 29.0739 195.054 29.9175C195.316 30.7529 195.447 31.6538 195.447 32.6202C195.447 33.5457 195.324 34.4302 195.078 35.2737C194.833 36.1173 194.444 36.8339 193.911 37.4236C193.387 38.0051 192.707 38.3777 191.872 38.5415C191.569 38.5989 191.229 38.6357 190.852 38.6521C190.476 38.6685 190.164 38.6767 189.919 38.6767H187.29ZM209.1 41.8339C210.509 41.8339 211.746 41.5472 212.81 40.9739C213.883 40.4006 214.718 39.5939 215.316 38.5538C215.922 37.5137 216.225 36.2934 216.225 34.8929V23.775H213.228V34.8192C213.228 35.6955 213.035 36.449 212.651 37.0796C212.274 37.7102 211.77 38.1975 211.139 38.5415C210.517 38.8773 209.837 39.0452 209.1 39.0452C208.388 39.0452 207.716 38.8773 207.085 38.5415C206.455 38.2057 205.943 37.7225 205.55 37.0919C205.165 36.4613 204.972 35.7037 204.972 34.8192V23.775L201.975 23.7996V34.8929C201.975 36.2934 202.274 37.5137 202.872 38.5538C203.478 39.5939 204.317 40.4006 205.39 40.9739C206.463 41.5472 207.7 41.8339 209.1 41.8339Z" fill="#FFF50F"/>
<path d="M53.1405 73.1635C53.1405 73.1635 58.6772 69.5553 59.0225 56.8941C59.3678 44.2328 53.1963 36.3008 47.3928 32.5616C41.5878 28.8156 29.4027 23.5121 27.4078 21.1653C27.4078 21.1653 23.538 32.2829 25.2213 41.262C26.9047 50.2411 34.8348 58.4428 41.829 62.7542C47.2899 66.12 52.6869 69.3945 53.1405 73.1635Z" fill="url(#paint0_linear_432_2236)"/>
<path d="M52.9972 62.2392C53.0804 62.1702 53.1533 62.1178 53.2578 62.0792C53.3608 62.0339 53.4602 62.0037 53.5631 61.9584C53.7587 61.8844 53.9528 61.8037 54.1452 61.7163C54.5317 61.5482 54.9135 61.36 55.287 61.1666C56.0272 60.7814 56.7498 60.3507 57.4199 59.8473C57.7999 59.5603 58.1685 59.2547 58.5356 58.9424C58.5831 58.9029 58.6423 58.9741 58.5947 59.0136C57.9834 59.6166 57.3029 60.1367 56.6012 60.6262C55.8995 61.1158 55.1619 61.5429 54.3853 61.8941C54.1675 61.9945 53.9482 62.0882 53.7272 62.1751C53.6175 62.222 53.5078 62.2688 53.395 62.3022C53.2703 62.3455 53.1678 62.3623 53.0321 62.3585C52.9716 62.3727 52.9496 62.2786 52.9972 62.2392Z" fill="#F8FFF8"/>
<path d="M43.3974 63.1535C44.6435 63.2028 45.8922 63.294 47.1416 63.2363C48.3911 63.1785 49.6305 63.0169 50.8516 62.7462C51.1896 62.6744 51.5244 62.5892 51.8578 62.4972C52.0244 62.4513 52.1978 62.4037 52.3644 62.3578C52.5311 62.3118 52.7096 62.256 52.8837 62.2721C52.9489 62.2781 52.9677 62.3587 52.9202 62.3981C52.8028 62.5034 52.6496 62.5463 52.5063 62.6009C52.3563 62.6572 52.1948 62.6949 52.0416 62.7377C51.7419 62.8218 51.4339 62.9007 51.1311 62.9714C50.5188 63.1142 49.9002 63.2302 49.2821 63.3178C48.0324 63.496 46.771 63.5636 45.5048 63.519C45.148 63.5101 44.7932 63.4796 44.4368 63.4423C44.0805 63.405 43.7329 63.3444 43.3806 63.2637C43.3137 63.2509 43.3254 63.149 43.3974 63.1535Z" fill="#F8FFF8"/>
<path d="M51.8368 57.6639C52.2855 57.2759 52.7638 56.9234 53.2224 56.5473C53.6809 56.1711 54.1265 55.7696 54.5487 55.3594C55.3984 54.5307 56.1722 53.6206 56.8699 52.6573C57.0635 52.3926 57.2473 52.1159 57.4311 51.8393C57.5256 51.6968 57.6201 51.5543 57.7078 51.4135C57.7971 51.2793 57.875 51.1265 58.0006 51.0264C58.0177 51.0082 58.0509 51.0288 58.0488 51.0505C58.0248 51.1907 57.9541 51.3135 57.8834 51.4362C57.8075 51.5673 57.7317 51.6983 57.6558 51.8294C57.4958 52.0863 57.3343 52.3365 57.1592 52.5898C56.821 53.0867 56.4647 53.5665 56.0819 54.0242C55.3112 54.9478 54.4611 55.8049 53.5419 56.579C53.0255 57.0111 52.4925 57.433 51.8924 57.7501C51.8401 57.7694 51.7944 57.695 51.8368 57.6639Z" fill="#F8FFF8"/>
<path d="M36.9374 58.5118C38.8731 58.5064 40.8082 58.4375 42.741 58.2982C44.6656 58.1538 46.5848 57.9256 48.4971 57.607C49.0297 57.5182 49.5609 57.4226 50.0971 57.3187C50.6267 57.2164 51.1567 57.0857 51.6878 56.9901C51.824 56.9654 51.8492 57.165 51.7229 57.2015C51.2551 57.3248 50.7726 57.4161 50.2969 57.5059C49.8227 57.6023 49.3387 57.6869 48.8614 57.7699C47.9069 57.936 46.9393 58.0767 45.982 58.2009C44.066 58.4425 42.1347 58.5884 40.2016 58.6357C39.1085 58.664 38.0262 58.6473 36.9344 58.5904C36.8707 58.5911 36.8871 58.5093 36.9374 58.5118Z" fill="#F8FFF8"/>
<path d="M50.2602 51.8204C50.3764 51.6799 50.4911 51.5327 50.6006 51.3938C50.7168 51.2534 50.8362 51.1264 50.9607 50.991C51.203 50.722 51.4438 50.4462 51.6679 50.1602C52.1194 49.6015 52.5444 49.0206 52.9362 48.4192C53.7317 47.2065 54.3893 45.9196 54.9339 44.5742C55.241 43.8225 55.5015 43.0533 55.7334 42.2838C55.7473 42.2522 55.7991 42.2613 55.7935 42.2981C55.479 43.7174 54.9692 45.0901 54.3297 46.394C53.6851 47.7061 52.9026 48.9442 51.9925 50.0915C51.7409 50.4123 51.4795 50.7212 51.2098 51.025C51.075 51.1769 50.9401 51.3288 50.7954 51.4688C50.6456 51.6171 50.4775 51.7484 50.3162 51.8781C50.2837 51.9211 50.2276 51.8634 50.2602 51.8204Z" fill="#F8FFF8"/>
<path d="M31.8716 52.8235C33.0467 52.9035 34.2188 52.9701 35.3964 52.9999C36.5741 53.0298 37.7506 53.0244 38.9245 52.9773C40.0999 52.9368 41.2727 52.8544 42.4444 52.7369C43.616 52.6194 44.7767 52.4549 45.9347 52.2485C46.5145 52.1486 47.0844 52.0369 47.6595 51.9169C47.9437 51.8577 48.2346 51.7969 48.5188 51.7377C48.803 51.6785 49.0887 51.626 49.378 51.5585C49.5261 51.5239 49.6674 51.491 49.8138 51.4497C49.9215 51.4246 49.9457 51.589 49.838 51.6141C49.2625 51.7625 48.6952 51.9161 48.1165 52.0511C47.5363 52.1794 46.9612 52.2994 46.383 52.406C45.2265 52.6191 44.0659 52.7837 42.8922 52.9229C41.7185 53.0621 40.5421 53.1595 39.3631 53.215C38.1841 53.2704 37.0024 53.284 35.8247 53.2542C34.647 53.2243 33.4734 53.151 32.3059 53.0126C32.1604 52.9969 32.0065 52.9762 31.861 52.9605C31.7724 52.9458 31.7913 52.8139 31.8716 52.8235Z" fill="#F8FFF8"/>
<path d="M28.0104 46.3704C29.2385 46.4948 30.4641 46.6693 31.6926 46.7652C32.9211 46.8611 34.1569 46.927 35.3935 46.936C36.6369 46.9434 37.8776 46.909 39.114 46.8259C40.3505 46.7429 41.5776 46.6195 42.8004 46.4476C43.4118 46.3616 44.0133 46.2638 44.62 46.1576C44.9259 46.1004 45.2402 46.0484 45.5461 45.9912C45.6957 45.9633 45.8469 45.9422 46.0032 45.9128C46.1528 45.885 46.2993 45.8438 46.454 45.8077C46.6021 45.7731 46.7579 45.7722 46.9107 45.7578C46.9661 45.752 46.9916 45.831 46.9394 45.8503C46.8027 45.9034 46.661 45.9648 46.5197 45.9978C46.3649 46.0339 46.207 46.0566 46.0523 46.0927C45.7578 46.1685 45.4565 46.2458 45.1506 46.303C44.5403 46.4242 43.9336 46.5303 43.317 46.6245C42.0839 46.8131 40.8465 46.953 39.5997 47.0526C38.3597 47.1507 37.119 47.1851 35.8772 47.1844C34.6354 47.1837 33.396 47.1328 32.1592 47.0318C31.5366 46.9787 30.9125 46.9188 30.292 46.844C29.6782 46.7676 29.0525 46.7011 28.453 46.5647C28.3028 46.5289 28.1541 46.4998 28.0038 46.4641C27.9318 46.4596 27.9384 46.366 28.0104 46.3704Z" fill="#F8FFF8"/>
<path d="M46.4456 46.1076C46.5535 45.962 46.6595 45.8381 46.7855 45.7095C46.9065 45.5892 47.0274 45.4689 47.1483 45.3486C47.3886 45.1013 47.6274 44.8472 47.8495 44.5829C48.3036 44.0661 48.7313 43.5271 49.1325 42.966C49.9349 41.8437 50.6331 40.6395 51.2033 39.3731C51.3615 39.0174 51.5115 38.6566 51.663 38.3025C51.8129 37.9416 51.9645 37.5875 52.0911 37.2179C52.1086 37.1714 52.1718 37.1991 52.161 37.2441C52.0634 37.5857 51.9724 37.9257 51.8581 38.2569C51.7438 38.5882 51.6197 38.9076 51.4805 39.2234C51.2037 39.8618 50.8969 40.493 50.5569 41.1036C49.8821 42.3165 49.0926 43.4641 48.1974 44.523C47.9478 44.822 47.6885 45.1092 47.4208 45.3913C47.2844 45.5364 47.1464 45.6749 47.0033 45.8216C46.9335 45.8875 46.8669 45.9668 46.7955 46.0259C46.7174 46.0867 46.6311 46.1422 46.5447 46.1978C46.4754 46.2352 46.396 46.1687 46.4456 46.1076Z" fill="#F8FFF8"/>
<path d="M42.5692 40.1402C42.7267 39.9334 42.8843 39.7267 43.0584 39.5302C43.2392 39.3322 43.4118 39.129 43.5827 38.9191C43.9128 38.5091 44.2247 38.0822 44.5117 37.6398C45.0842 36.7483 45.5421 35.7914 45.9383 34.8135C46.1619 34.2513 46.3689 33.6788 46.5007 33.0884C46.5043 33.0734 46.5328 33.0738 46.5292 33.0888C46.4236 33.6093 46.3129 34.1381 46.1689 34.6463C46.0198 35.1628 45.8323 35.667 45.6117 36.1506C45.1652 37.126 44.5871 38.0543 43.9265 38.9026C43.7417 39.1441 43.5402 39.3753 43.3371 39.5997C43.2348 39.7086 43.1341 39.8242 43.0219 39.9212C42.903 40.0198 42.7825 40.1117 42.662 40.2035C42.6026 40.2528 42.5248 40.193 42.5692 40.1402Z" fill="#F8FFF8"/>
<path d="M26.5813 38.9399C27.5822 39.1244 28.5692 39.3404 29.5669 39.5114C30.5579 39.6839 31.5509 39.8348 32.5547 39.9406C33.5668 40.0516 34.5778 40.1274 35.5945 40.1665C36.5976 40.2087 37.6096 40.2276 38.6157 40.1913C39.179 40.1732 39.746 40.14 40.313 40.1069C40.5999 40.0896 40.8899 40.0857 41.1803 40.0534C41.3196 40.0421 41.464 40.0226 41.6033 40.0113C41.7426 40.0001 41.885 40.0023 42.0274 40.0045C42.0844 40.0054 42.0747 40.0855 42.0276 40.0965C41.9065 40.1248 41.7802 40.1613 41.6559 40.1762C41.5182 40.1941 41.3857 40.2038 41.2464 40.215C40.9963 40.238 40.7509 40.281 40.4993 40.2972C39.9976 40.3364 39.4943 40.3688 38.9946 40.3862C37.9818 40.4242 36.9591 40.4502 35.944 40.4179C33.9139 40.3531 31.8809 40.1545 29.8792 39.7856C28.7597 39.5793 27.6458 39.3362 26.5674 38.9715C26.5472 38.9762 26.558 38.9312 26.5813 38.9399Z" fill="#F8FFF8"/>
<path d="M27.3585 31.9933C27.9517 32.1029 28.5404 32.2843 29.1279 32.4306C29.7154 32.5769 30.3066 32.7081 30.8961 32.8327C32.0872 33.0719 33.2926 33.2511 34.5056 33.3719C35.195 33.4377 35.8813 33.4901 36.568 33.5141C36.6819 33.5159 36.659 33.6912 36.5451 33.6895C35.3239 33.6556 34.1021 33.5581 32.89 33.3805C31.6861 33.208 30.4816 32.9719 29.3018 32.6592C28.6428 32.48 27.9635 32.3056 27.3415 32.0115C27.3482 32.0099 27.3518 31.9949 27.3585 31.9933Z" fill="#F8FFF8"/>
<path d="M35.9185 33.4964C36.0193 33.3808 36.1314 33.2838 36.2322 33.1682C36.3345 33.0593 36.4352 32.9438 36.5277 32.823C36.7141 32.5883 36.8907 32.3416 37.0492 32.078C37.3609 31.559 37.6114 30.9905 37.7883 30.4109C37.8892 30.0827 37.9651 29.7392 38.0426 29.4023C38.0514 29.379 38.0798 29.3795 38.0794 29.4079C38.0812 30.0238 37.9136 30.6437 37.6932 31.2194C37.466 31.7966 37.1538 32.344 36.7804 32.842C36.6725 32.9876 36.563 33.1265 36.4452 33.2602C36.3274 33.3939 36.2112 33.5344 36.0752 33.6511C35.9884 33.7351 35.8364 33.6006 35.9185 33.4964Z" fill="#F8FFF8"/>
<path d="M29.6493 25.2324C29.6493 25.2324 34.0027 30.9675 40.2494 37.6707C45.0381 42.8084 48.6161 47.6831 50.362 51.5473C52.6759 56.6603 55.2905 70.0265 53.7104 77.486L51.9323 78.8359C51.9323 78.8359 53.3068 71.8636 52.855 67.4637C52.4856 63.8734 52.2455 60.6851 50.8114 55.7848C49.3309 50.7465 46.8981 46.7663 44.3291 43.5405C41.918 40.5045 39.2988 37.2761 37.0823 34.9527C34.8606 32.6375 29.278 25.4961 29.6493 25.2324Z" fill="#D9FEC9"/>
<path opacity="0.5" d="M71.3329 45.7891C70.9796 46.1256 70.2806 46.3535 70.2009 45.6848C70.1158 45.0192 70.6394 43.8968 71.5627 43.4584C72.4806 43.023 72.2813 44.8735 71.3329 45.7891Z" fill="#98C5BC"/>
<path opacity="0.5" d="M68.9417 50.3435C68.5624 50.8831 68.2171 50.478 68.2318 49.8842C68.252 49.2872 68.6439 48.7691 68.8866 48.6273C69.2696 48.4034 69.4563 49.602 68.9417 50.3435Z" fill="#98C5BC"/>
<path d="M55.8376 32.7207C55.8076 32.7382 55.7682 32.7533 55.7277 32.7528C55.6003 32.755 55.4944 32.6564 55.4829 32.5266C55.4367 31.1404 56.6945 30.3892 56.7545 30.3542C56.8684 30.2876 57.0108 30.3248 57.0772 30.4386C57.1437 30.5523 57.1062 30.6946 56.9923 30.7612C56.9804 30.7682 55.9143 31.4073 55.952 32.5174C55.9545 32.6042 55.9095 32.6787 55.8376 32.7207Z" fill="black"/>
<path d="M54.3305 18.2009C54.3305 18.2009 52.3134 15.9192 50.9612 13C49.9558 10.8256 49.4715 9.44658 49.6841 7.8289C50.0419 5.13874 51.5711 4.78298 52.4519 4.88646C53.2697 4.97856 54.4938 6.0135 53.7486 7.57309C53.1293 8.86643 51.7694 8.71376 50.9657 9.22366C50.3947 9.58145 50.9725 11.3956 51.4662 12.6808C51.6946 13.2779 53.2657 16.4064 54.8795 17.6953L54.3305 18.2009Z" fill="url(#paint1_linear_432_2236)"/>
<path d="M51.3126 5.52082C51.3441 5.67103 51.5884 5.74503 51.8522 5.68723C52.1159 5.62942 52.3037 5.45542 52.2722 5.30521C52.2407 5.155 51.9964 5.081 51.7327 5.1388C51.4629 5.20012 51.2811 5.37061 51.3126 5.52082Z" fill="url(#paint2_linear_432_2236)"/>
<path d="M47.6446 26.5013C47.6446 26.5013 45.072 24.8654 42.9675 22.4341C41.4006 20.62 40.5556 19.4357 40.3171 17.8167C39.9166 15.1362 41.2913 14.3648 42.1656 14.2232C42.9779 14.0857 44.4387 14.7414 44.1572 16.4476C43.9221 17.8616 42.5682 18.0908 41.9359 18.7976C41.4893 19.2995 42.5436 20.8833 43.3706 21.9817C43.7583 22.4938 46.1302 25.066 48.0357 25.8633L47.6446 26.5013Z" fill="url(#paint3_linear_432_2236)"/>
<path d="M41.247 15.1526C41.3179 15.2878 41.5737 15.2989 41.811 15.1682C42.0483 15.0376 42.1806 14.8237 42.1097 14.6886C42.0387 14.5534 41.7829 14.5423 41.5456 14.6729C41.3049 14.7976 41.1665 15.015 41.247 15.1526Z" fill="url(#paint4_linear_432_2236)"/>
<path d="M63.8413 69.6977C63.8413 69.6977 64.7637 71.3585 65.8253 70.987C66.8509 70.6365 66.6838 68.9196 66.6838 68.9196C66.6838 68.9196 65.4819 69.4775 63.8413 69.6977Z" fill="url(#paint5_linear_432_2236)"/>
<path d="M71.137 66.4072C71.137 66.4072 72.661 68.5194 73.6705 68.0177C74.5687 67.5731 74.488 65.3159 74.488 65.3159C74.488 65.3159 72.9959 66.2441 71.137 66.4072Z" fill="url(#paint6_linear_432_2236)"/>
<path d="M77.5827 62.8949C77.5827 62.8949 79.183 64.0231 79.8653 63.1265C80.5101 62.2759 79.0062 60.6658 79.0062 60.6658C79.0062 60.6658 78.4883 62.0364 77.5827 62.8949Z" fill="url(#paint7_linear_432_2236)"/>
<path d="M56.1453 70.1265C56.1453 70.1265 57.1911 71.916 57.932 71.5874C58.6693 71.2528 58.5747 69.7424 58.5747 69.7424C58.5747 69.7424 58.1286 70.2038 56.1453 70.1265Z" fill="url(#paint8_linear_432_2236)"/>
<path d="M52.112 71.3662C52.112 71.3662 53.0234 72.6642 53.9396 72.3054C54.6979 72.0067 54.225 70.2758 54.225 70.2758C54.225 70.2758 53.2275 71.2522 52.112 71.3662Z" fill="url(#paint9_linear_432_2236)"/>
<path d="M49.0734 73.682C49.0734 73.682 48.1015 75.7756 45.3414 76.4332C42.2256 77.1703 38.8393 75.6969 38.6444 74.8955C38.3939 73.8616 39.9207 74.4787 40.0978 72.5526C40.2455 70.8926 41.0131 69.1513 42.2315 68.9932C42.2315 68.9932 41.8551 70.7708 44.0155 72.6235C46.1664 74.4737 49.0734 73.682 49.0734 73.682Z" fill="url(#paint10_radial_432_2236)"/>
<path d="M44.1718 63.8919C44.1718 63.8919 41.0711 65.6318 41.6167 69.4961C41.9682 71.9965 44.5199 74.8489 47.5488 74.4999C50.9639 74.1098 52.0471 71.1884 52.0471 71.1884C52.0471 71.1884 50.0005 72.1999 46.7214 69.5477C43.9669 67.3116 43.965 64.4463 44.1718 63.8919Z" fill="url(#paint11_radial_432_2236)"/>
<path d="M54.2404 69.7529C54.2404 69.7529 54.5008 70.6525 53.0716 71.2068C49.7131 72.5193 46.3557 71.0129 44.6029 68.5366C43.0314 66.3157 43.0277 64.2865 43.4216 62.8278C44.0338 60.559 46.7507 57.9836 48.2265 58.2933C48.2265 58.2933 47.1254 62.285 49.349 65.4978C51.5735 68.7262 52.7731 69.3338 54.2404 69.7529Z" fill="url(#paint12_radial_432_2236)"/>
<path d="M56.6262 56.0116C56.6262 56.0116 55.0853 54.8888 52.9631 55.0693C49.6804 55.3418 46.8348 58.5225 47.4083 62.5311C47.8989 65.9298 50.544 68.4466 52.7173 69.537C55.1059 70.7344 58.2847 70.3941 59.9606 69.519C59.9606 69.519 56.7273 68.5824 54.9812 64.7693C53.2447 60.9587 55.5282 57.0227 56.6262 56.0116Z" fill="url(#paint13_radial_432_2236)"/>
<path d="M71.2011 66.2719C71.2011 66.2719 67.8794 69.8352 63.4197 70.2818C59.6525 70.6609 56.928 68.9853 55.1946 66.0882C52.977 62.3902 53.9063 59.3018 54.9871 57.3533C56.1289 55.2889 59.934 53.9563 61.1181 54.7577C61.1181 54.7577 58.9171 59.4404 63.0376 63.0781C68.1848 67.6333 71.2011 66.2719 71.2011 66.2719Z" fill="url(#paint14_radial_432_2236)"/>
<path d="M80.4256 55.7187C80.9738 57.0282 80.0161 64.6777 72.6571 66.3692C68.213 67.3928 65.8828 66.6671 63.3612 64.6642C60.7441 62.5806 59.5518 59.9213 59.9715 56.8416C60.3563 53.9912 63.0098 52.0229 64.4986 52.5338C64.4986 52.5338 67.3048 56.771 71.6013 57.4074C75.8977 58.0438 77.8624 57.1123 80.4256 55.7187Z" fill="url(#paint15_radial_432_2236)"/>
<path opacity="0.5" d="M52.879 55.6063C53.1518 56.0731 52.5804 56.7604 51.8876 57.4463C51.0394 58.2792 50.4345 58.8817 49.7566 58.6436C49.2635 58.4741 49.5965 57.2277 50.2499 56.5568C51.1515 55.6364 52.6062 55.1395 52.879 55.6063Z" fill="#98C5BC"/>
<path opacity="0.5" d="M57.5862 57.826C56.8643 58.0632 56.6439 57.1081 57.013 56.515C57.4076 55.883 57.9155 55.2248 58.6908 54.9965C59.8843 54.6442 59.3194 55.9619 59.0582 56.3956C58.8005 56.8353 58.4909 57.5301 57.5862 57.826Z" fill="#98C5BC"/>
<path opacity="0.5" d="M62.4163 55.6868C61.6945 55.9241 61.2703 55.3771 61.5874 54.7501C62.0719 53.7765 62.7662 52.9692 63.5415 52.7409C64.7349 52.3887 64.3679 53.5908 64.1127 54.021C63.849 54.4641 63.3175 55.385 62.4163 55.6868Z" fill="#98C5BC"/>
<path d="M81.4041 42.7093C81.4041 42.7093 83.0304 43.7581 84.3567 47.3347C85.4987 50.417 84.9042 54.4498 81.502 57.201C79.4979 58.8219 74.5897 59.9321 71.2758 58.6652C67.956 57.4019 66.4539 54.5703 65.6584 53.4294C64.6945 52.0416 65.4141 49.6539 65.4141 49.6539C65.4141 49.6539 69.6723 51.766 75.0234 49.1845C80.5469 46.5264 81.4041 42.7093 81.4041 42.7093Z" fill="url(#paint16_radial_432_2236)"/>
<path d="M74.9573 32.5875C74.9573 32.5875 76.7434 32.74 79.1786 34.8978C81.6668 37.1048 82.3912 40.8486 81.5078 43.3963C80.7946 45.451 78.6058 48.0631 75.1924 49.6807C73.0374 50.6994 68.9635 52.1088 65.7945 50.5806C62.7249 49.0987 61.6803 45.5501 61.8924 44.2619C61.8924 44.2619 63.2343 44.2324 65.6741 42.9029C66.798 42.2941 68.1288 41.5164 69.4965 40.3477C70.8677 39.185 71.9156 37.7857 72.6818 36.84C74.8207 34.225 74.9573 32.5875 74.9573 32.5875Z" fill="url(#paint17_radial_432_2236)"/>
<path d="M62.3585 43.5469C62.3585 43.5469 61.0394 45.1289 60.8233 47.2223C60.5958 49.3786 61.1507 51.7039 62.7805 53.2404C65.4306 55.7383 68.8036 54.4093 68.8036 54.4093L67.7068 52.8905C67.7068 52.8905 65.0566 53.516 63.7504 51.405C62.3078 49.0605 63.541 47.2076 63.541 47.2076C63.541 47.2076 64.0065 46.0363 63.8545 45.2259C63.631 44.0317 62.922 43.2176 62.3585 43.5469Z" fill="url(#paint18_radial_432_2236)"/>
<path d="M69.5006 19.7418C71.3117 21.0518 74.3118 21.6029 75.6126 25.0258C76.8385 28.2516 76.2084 34.3287 71.5334 38.9478C61.6077 48.7555 52.8641 45.2021 49.3165 40.6595C45.8238 36.1971 46.0692 32.8742 46.1317 29.8026C46.1942 26.731 48.2171 20.2575 54.4659 17.1754C61.02 13.9552 65.1998 16.6349 69.5006 19.7418Z" fill="url(#paint19_radial_432_2236)"/>
<path d="M64.1974 25.0898C64.1614 25.1109 64.1125 25.1234 64.0685 25.117C63.9376 25.1132 63.8402 25.0015 63.8442 24.8707C63.8811 24.1908 65.1673 23.158 65.4246 22.9514C65.5255 22.8764 65.6729 22.8947 65.7538 22.9919C65.8288 23.0926 65.8103 23.2399 65.7129 23.3209C64.7623 24.0611 64.3238 24.6868 64.3093 24.896C64.3058 24.9863 64.2634 25.0513 64.1974 25.0898Z" fill="black"/>
<path d="M68.1532 37.6632C68.0812 37.7052 68.0093 37.7472 67.9339 37.7833C67.298 38.0988 66.7154 38.1341 66.2173 37.8873C65.2601 37.419 64.9751 36.0921 64.9651 36.0337C64.9381 35.9049 65.0206 35.7845 65.1495 35.7574C65.2783 35.7302 65.3987 35.8124 65.4257 35.9411C65.4267 35.9566 65.6782 37.1024 66.4236 37.4696C66.7833 37.6448 67.2229 37.6127 67.7235 37.3683C69.5808 36.4594 68.6958 34.5599 68.6563 34.4786C68.5959 34.3614 68.6523 34.224 68.7637 34.1669C68.8811 34.1063 69.0185 34.1625 69.0754 34.2738C69.0954 34.2942 70.1373 36.5035 68.1532 37.6632Z" fill="url(#paint20_linear_432_2236)"/>
<mask id="mask0_432_2236" style="mask-type:alpha" maskUnits="userSpaceOnUse" x="57" y="32" width="5" height="5">
<path d="M60.867 35.8999C61.8238 35.3407 62.1468 34.113 61.5886 33.1578C61.0303 32.2025 59.8021 31.8814 58.8453 32.4406C57.8885 32.9998 57.5655 34.2275 58.1237 35.1828C58.682 36.138 59.9102 36.4591 60.867 35.8999Z" fill="url(#paint21_radial_432_2236)"/>
</mask>
<g mask="url(#mask0_432_2236)">
<path opacity="0.6" d="M60.867 35.8999C61.8238 35.3407 62.1468 34.113 61.5886 33.1578C61.0303 32.2025 59.8021 31.8814 58.8453 32.4406C57.8885 32.9998 57.5655 34.2275 58.1237 35.1828C58.682 36.138 59.9102 36.4591 60.867 35.8999Z" fill="url(#paint22_radial_432_2236)"/>
<path d="M60.2159 35.5964C60.8349 35.2346 61.044 34.4402 60.6827 33.8221C60.3215 33.204 59.5268 32.9962 58.9077 33.358C58.2886 33.7199 58.0795 34.5143 58.4408 35.1324C58.802 35.7505 59.5968 35.9582 60.2159 35.5964Z" fill="black"/>
<path d="M60.0584 34.0331C60.1743 33.9654 60.2134 33.8167 60.1458 33.701C60.0782 33.5854 59.9295 33.5465 59.8136 33.6142C59.6977 33.6819 59.6586 33.8306 59.7262 33.9463C59.7938 34.062 59.9426 34.1009 60.0584 34.0331Z" fill="white"/>
</g>
<mask id="mask1_432_2236" style="mask-type:alpha" maskUnits="userSpaceOnUse" x="66" y="24" width="5" height="5">
<path d="M69.1762 28.1055C70.133 27.5463 70.4561 26.3186 69.8978 25.3633C69.3395 24.4081 68.1113 24.087 67.1545 24.6462C66.1977 25.2054 65.8747 26.4331 66.433 27.3883C66.9913 28.3436 68.2195 28.6646 69.1762 28.1055Z" fill="url(#paint23_radial_432_2236)"/>
</mask>
<g mask="url(#mask1_432_2236)">
<path opacity="0.6" d="M69.1762 28.1055C70.133 27.5463 70.4561 26.3186 69.8978 25.3633C69.3395 24.4081 68.1113 24.087 67.1545 24.6462C66.1977 25.2054 65.8747 26.4331 66.433 27.3883C66.9913 28.3436 68.2195 28.6646 69.1762 28.1055Z" fill="url(#paint24_radial_432_2236)"/>
<path d="M68.5237 27.8029C69.1428 27.4411 69.3518 26.6467 68.9906 26.0286C68.6293 25.4105 67.8346 25.2028 67.2155 25.5646C66.5964 25.9264 66.3874 26.7208 66.7486 27.3389C67.1099 27.957 67.9046 28.1648 68.5237 27.8029Z" fill="black"/>
<path d="M68.3679 26.2407C68.4838 26.1729 68.5229 26.0243 68.4553 25.9086C68.3877 25.7929 68.239 25.754 68.1231 25.8217C68.0072 25.8894 67.9681 26.0381 68.0357 26.1538C68.1033 26.2695 68.2521 26.3084 68.3679 26.2407Z" fill="white"/>
</g>
<g style="mix-blend-mode:overlay">
<mask id="mask2_432_2236" style="mask-type:alpha" maskUnits="userSpaceOnUse" x="55" y="36" width="7" height="8">
<path d="M60.2309 42.752C61.7936 41.8387 62.3211 39.8336 61.4093 38.2735C60.4975 36.7133 58.4916 36.189 56.929 37.1022C55.3663 38.0155 54.8387 40.0206 55.7505 41.5807C56.6624 43.1409 58.6683 43.6652 60.2309 42.752Z" fill="url(#paint25_radial_432_2236)"/>
</mask>
<g mask="url(#mask2_432_2236)">
<path opacity="0.77" d="M60.2309 42.752C61.7936 41.8387 62.3211 39.8336 61.4093 38.2735C60.4975 36.7133 58.4916 36.189 56.929 37.1022C55.3663 38.0155 54.8387 40.0206 55.7505 41.5807C56.6624 43.1409 58.6683 43.6652 60.2309 42.752Z" fill="url(#paint26_radial_432_2236)"/>
<path opacity="0.73" d="M57.68 39.447C57.7781 39.3098 57.7767 39.1409 57.6769 39.0698C57.5771 38.9986 57.4167 39.0522 57.3186 39.1895C57.2206 39.3267 57.222 39.4956 57.3218 39.5668C57.4216 39.6379 57.582 39.5843 57.68 39.447Z" fill="white"/>
</g>
</g>
<g style="mix-blend-mode:overlay">
<mask id="mask3_432_2236" style="mask-type:alpha" maskUnits="userSpaceOnUse" x="68" y="22" width="8" height="8">
<path d="M73.5187 28.9873C75.0814 28.074 75.609 26.0689 74.6972 24.5088C73.7853 22.9487 71.7794 22.4243 70.2168 23.3376C68.6541 24.2509 68.1266 26.2559 69.0384 27.8161C69.9502 29.3762 71.9561 29.9006 73.5187 28.9873Z" fill="url(#paint27_radial_432_2236)"/>
</mask>
<g mask="url(#mask3_432_2236)">
<path opacity="0.77" d="M73.5187 28.9873C75.0814 28.074 75.609 26.0689 74.6972 24.5088C73.7853 22.9487 71.7794 22.4243 70.2168 23.3376C68.6541 24.2509 68.1266 26.2559 69.0384 27.8161C69.9502 29.3762 71.9561 29.9006 73.5187 28.9873Z" fill="url(#paint28_radial_432_2236)"/>
<path opacity="0.73" d="M72.0475 24.8582C72.2068 24.8025 72.3032 24.6636 72.2629 24.5479C72.2225 24.4323 72.0607 24.3836 71.9014 24.4393C71.7422 24.4949 71.6458 24.6338 71.6861 24.7495C71.7265 24.8652 71.8883 24.9138 72.0475 24.8582Z" fill="white"/>
</g>
</g>
<path d="M75.0303 30.0947C74.8564 30.1963 74.6851 30.2884 74.5078 30.3841C72.9542 31.1796 71.1433 31.6037 69.672 31.5081C66.8019 31.3308 64.6541 30.1051 63.0961 27.7558C61.3592 25.1417 60.9551 21.9735 62.0318 19.4814C63.0387 17.1587 64.4688 15.5601 66.2906 14.7282C68.0036 13.9438 70.1073 13.8143 72.5493 14.3462C75.269 14.9406 77.8237 16.9724 79.0625 19.5323C80.0539 21.5864 80.0917 23.7563 79.1652 25.6387C78.2327 27.5245 76.8106 29.0542 75.0303 30.0947ZM66.0579 15.7474C64.6732 16.5567 63.5928 17.8867 62.7648 19.7998C62.2798 20.9102 62.1306 22.2098 62.3142 23.5559C62.4957 24.8709 62.9964 26.1681 63.7549 27.3145C65.182 29.4673 67.0746 30.5452 69.7139 30.7129C72.0749 30.8585 76.3501 29.5321 78.4303 25.2894C79.2469 23.6318 79.2096 21.7105 78.3261 19.8824C77.1978 17.5389 74.853 15.6735 72.367 15.1352C70.0984 14.6385 68.1615 14.7508 66.6149 15.462C66.4306 15.5456 66.2378 15.6423 66.0579 15.7474Z" fill="url(#paint29_linear_432_2236)"/>
<path d="M58.9593 44.3592C57.3947 45.2736 55.5433 45.6972 53.4386 45.6186C50.9662 45.53 48.9757 44.6699 47.5252 43.0688C45.9373 41.3151 45.0807 38.6522 45.2482 35.9529C45.3668 34.0368 46.2943 32.0736 47.8632 30.4099C49.3743 28.8122 51.3499 27.6656 53.2867 27.2642C58.14 26.2665 60.907 28.9369 61.8674 30.1259C63.4293 32.0554 64.5698 35.548 63.622 38.2056C62.8739 40.2968 61.8345 41.9722 60.5318 43.1832C60.0452 43.6442 59.5227 44.0298 58.9593 44.3592ZM50.7896 29.1011C49.9444 29.5951 49.1426 30.2322 48.4528 30.9646C47.0117 32.4893 46.1602 34.2797 46.0545 36.0115C45.9015 38.5017 46.6752 40.94 48.1257 42.5412C49.4283 43.9719 51.2233 44.7454 53.4744 44.8268C58.0171 44.9901 61.1806 42.6835 62.8716 37.9536C63.6936 35.6586 62.695 32.4364 61.254 30.645C60.3816 29.5651 57.8803 27.1569 53.4567 28.0642C52.5535 28.2388 51.6468 28.6001 50.7896 29.1011Z" fill="url(#paint30_linear_432_2236)"/>
<path d="M63.0751 32.1275C62.9792 32.1835 62.8528 32.2012 62.7379 32.1559C62.5281 32.0859 62.4226 31.8504 62.4965 31.6466C62.6519 31.2106 63.0984 30.6124 63.6379 30.1044C64.1074 29.6694 64.7908 29.1737 65.4038 29.2731C65.6236 29.3052 65.771 29.5161 65.735 29.7298C65.7026 29.9495 65.4913 30.0971 65.2775 30.0615C65.1076 30.0323 64.6935 30.2181 64.195 30.6861C63.711 31.1376 63.3548 31.6428 63.2659 31.9035C63.2135 32.0065 63.153 32.0819 63.0751 32.1275Z" fill="url(#paint31_linear_432_2236)"/>
<path d="M48.4706 33.6932C48.4227 33.7212 48.3667 33.7218 48.3123 33.6974C48.2318 33.6561 48.1973 33.5558 48.2388 33.4754C48.2852 33.376 49.4749 30.9945 52.5262 29.693C52.6111 29.6594 52.713 29.6962 52.7465 29.781C52.78 29.8658 52.743 29.9677 52.6581 30.0013C49.7277 31.2482 48.555 33.6037 48.544 33.6262C48.5211 33.6556 48.5006 33.6756 48.4706 33.6932Z" fill="url(#paint32_linear_432_2236)"/>
<path d="M63.6935 20.6375C63.6515 20.6621 63.5991 20.6686 63.5576 20.6527C63.4687 20.6244 63.4282 20.5276 63.4566 20.4387C63.4876 20.3403 64.3181 18.0323 66.5565 16.427C66.6309 16.3755 66.7378 16.3933 66.7893 16.4676C66.8408 16.5419 66.8228 16.6488 66.7484 16.7003C64.5869 18.2446 63.7734 20.5266 63.7659 20.5551C63.7524 20.587 63.7234 20.62 63.6935 20.6375Z" fill="url(#paint33_linear_432_2236)"/>
<path opacity="0.25" d="M73.0071 49.4491C73.0071 49.4491 73.9809 49.8355 76.3547 48.4481C78.7285 47.0607 81.0032 44.6232 81.2302 42.411C81.564 39.1568 79.2236 36.2531 76.9266 36.327C74.626 36.3949 69.6974 41.6119 68.9207 43.0213C68.0332 44.64 68.3678 47.1664 69.4595 48.1262C70.5537 49.0765 71.6508 49.4951 73.0071 49.4491Z" fill="#EFF2A2"/>
<path opacity="0.25" d="M74.3443 57.3775C75.8591 58.2907 77.857 58.8333 80.7718 56.9129C84.3849 54.5363 84.7162 51.0989 84.0354 48.8471C83.3512 46.5893 77.2212 49.1041 74.9959 51.585C73.385 53.3695 72.3733 56.1929 74.3443 57.3775Z" fill="#EFF2A2"/>
<path opacity="0.25" d="M69.1085 64.2589C69.863 65.7289 73.2776 65.8609 74.9141 64.9045C77.1321 63.6082 79.678 60.3137 79.6498 58.628C75.6668 60.0003 73.5091 59.776 72.7427 59.3728C71.5339 60.4005 68.3609 62.8009 69.1085 64.2589Z" fill="#EFF2A2"/>
<path d="M63.416 48.1079C63.416 48.1079 63.7531 47.3087 63.0516 46.8515C63.0516 46.8515 65.251 45.1245 67.6562 43.4056C69.9546 41.7653 72.2364 40.1105 74.1962 39.3907C76.4142 38.5761 77.7022 39.1562 77.7022 39.1562C77.7022 39.1562 77.2472 39.9601 76.6821 39.7363C75.2948 39.7843 73.2632 40.8352 71.1836 42.2032C68.0051 44.2777 64.7177 47.0741 63.416 48.1079Z" fill="#E7E9E7"/>
<path d="M87.2671 27.7694C87.2671 27.7694 86.6591 27.7473 85.9996 27.2656C85.9996 27.2656 79.2586 33.2207 78.032 36.0894C77.146 38.1649 77.8705 39.267 77.8705 39.267C77.8705 39.267 78.4374 37.9802 78.8874 37.0026C79.5331 35.5894 81.4013 33.3093 82.0821 32.534C82.7604 31.7682 87.2671 27.7694 87.2671 27.7694Z" fill="#E7E9E7"/>
<path d="M63.1905 48.1357C63.1905 48.1357 73.9536 38.9627 76.7114 39.567C76.7114 39.567 83.553 49.9246 84.5314 51.3922C84.5314 51.3922 80.7722 52.3769 73.4136 57.6331C73.4196 57.6296 65.7664 49.1995 63.1905 48.1357Z" fill="#EE6E5C"/>
<path d="M76.6412 39.5994C76.6412 39.5994 77.8861 39.6105 78.2556 38.0135C78.2556 38.0135 85.2822 49.4995 85.7544 50.2111C85.7544 50.2111 86.2381 51.4379 84.4611 51.4246L76.6412 39.5994Z" fill="url(#paint34_linear_432_2236)"/>
<path d="M87.4048 27.4802C87.4048 27.4802 79.1957 34.0606 78.1991 38.1759L85.7363 50.2466C85.7363 50.2466 87.1226 46.0963 92.7163 41.5906C92.7198 41.5966 87.5585 29.6145 87.4048 27.4802Z" fill="url(#paint35_linear_432_2236)"/>
<path d="M69.995 54.9738C69.013 55.6601 67.8194 55.2416 67.1219 54.172C66.4208 53.0963 65.9055 51.1413 66.6158 50.967C67.3262 50.7927 67.5677 52.3617 68.1352 51.9016C68.7121 51.444 69.8585 50.1718 70.4246 50.6037C70.9907 51.0357 69.6319 52.0546 69.6319 52.0546C69.6319 52.0546 71.0966 51.4234 71.5873 51.8914C72.0839 52.3558 70.5753 53.2697 70.5753 53.2697C70.5753 53.2697 71.8301 52.5684 72.0301 53.3508C72.2395 54.1357 70.8522 54.3764 69.995 54.9738Z" fill="white"/>
<path d="M90.2225 32.6977C90.2225 32.6977 89.8023 32.5017 88.8641 32.231C87.3872 31.8095 87.4894 33.3878 89.3394 33.8562C89.3394 33.8562 87.2188 34.9751 87.6675 35.5639C88.1162 36.1528 89.9401 35.2555 89.9401 35.2555C89.9401 35.2555 88.0778 36.5687 88.6884 37.1593C89.2989 37.7499 90.5732 36.7241 90.5732 36.7241C90.5732 36.7241 89.268 37.8483 89.7806 38.0786C90.2932 38.3089 90.9751 38.1272 91.7678 37.3507C92.7473 36.3848 92.3434 34.5654 92.0601 33.9843C91.7758 33.3877 91.0068 32.8013 90.2225 32.6977Z" fill="#50E0A8"/>
<path d="M64.7983 36.1839C64.9011 36.1238 64.8064 35.9617 64.7035 36.0218C64.6007 36.0819 64.6954 36.2441 64.7983 36.1839Z" fill="url(#paint36_radial_432_2236)"/>
<defs>
<linearGradient id="paint0_linear_432_2236" x1="54.4626" y1="73.3312" x2="31.5329" y2="22.1976" gradientUnits="userSpaceOnUse">
<stop stop-color="#A0EECF"/>
<stop offset="0.2128" stop-color="#2FC581"/>
<stop offset="0.3971" stop-color="#53BA73"/>
<stop offset="0.5709" stop-color="#57C542"/>
<stop offset="0.7383" stop-color="#3FC955"/>
<stop offset="0.8995" stop-color="#73E24C"/>
<stop offset="1" stop-color="#8BF47A"/>
</linearGradient>
<linearGradient id="paint1_linear_432_2236" x1="50.9025" y1="4.91183" x2="54.8232" y2="17.8586" gradientUnits="userSpaceOnUse">
<stop stop-color="#E65A4A"/>
<stop offset="0.9122" stop-color="#E65C4A"/>
<stop offset="0.9947" stop-color="#E65D4A"/>
</linearGradient>
<linearGradient id="paint2_linear_432_2236" x1="51.3809" y1="5.65696" x2="52.1995" y2="5.17849" gradientUnits="userSpaceOnUse">
<stop stop-color="#E65A4A"/>
<stop offset="0.9122" stop-color="#E65C4A"/>
<stop offset="0.9947" stop-color="#E65D4A"/>
</linearGradient>
<linearGradient id="paint3_linear_432_2236" x1="40.6816" y1="14.6767" x2="48.0145" y2="26.0427" gradientUnits="userSpaceOnUse">
<stop stop-color="#E65A4A"/>
<stop offset="0.9122" stop-color="#E65C4A"/>
<stop offset="0.9947" stop-color="#E65D4A"/>
</linearGradient>
<linearGradient id="paint4_linear_432_2236" x1="41.2518" y1="15.1644" x2="42.097" y2="14.6704" gradientUnits="userSpaceOnUse">
<stop stop-color="#E65A4A"/>
<stop offset="0.9122" stop-color="#E65C4A"/>
<stop offset="0.9947" stop-color="#E65D4A"/>
</linearGradient>
<linearGradient id="paint5_linear_432_2236" x1="65.9257" y1="70.9379" x2="65.3609" y2="69.553" gradientUnits="userSpaceOnUse">
<stop stop-color="#B3CF62"/>
<stop offset="0.257" stop-color="#B0CC61"/>
<stop offset="0.4534" stop-color="#A6C45D"/>
<stop offset="0.6298" stop-color="#96B557"/>
<stop offset="0.7944" stop-color="#7FA14F"/>
<stop offset="0.9495" stop-color="#618744"/>
<stop offset="1" stop-color="#567D40"/>
</linearGradient>
<linearGradient id="paint6_linear_432_2236" x1="73.6388" y1="68.1049" x2="72.9063" y2="66.1184" gradientUnits="userSpaceOnUse">
<stop stop-color="#B3CF62"/>
<stop offset="0.257" stop-color="#B0CC61"/>
<stop offset="0.4534" stop-color="#A6C45D"/>
<stop offset="0.6298" stop-color="#96B557"/>
<stop offset="0.7944" stop-color="#7FA14F"/>
<stop offset="0.9495" stop-color="#618744"/>
<stop offset="1" stop-color="#567D40"/>
</linearGradient>
<linearGradient id="paint7_linear_432_2236" x1="80.0193" y1="63.2064" x2="78.4615" y2="61.9162" gradientUnits="userSpaceOnUse">
<stop stop-color="#B3CF62"/>
<stop offset="0.257" stop-color="#B0CC61"/>
<stop offset="0.4534" stop-color="#A6C45D"/>
<stop offset="0.6298" stop-color="#96B557"/>
<stop offset="0.7944" stop-color="#7FA14F"/>
<stop offset="0.9495" stop-color="#618744"/>
<stop offset="1" stop-color="#567D40"/>
</linearGradient>
<linearGradient id="paint8_linear_432_2236" x1="57.8133" y1="71.6948" x2="57.3047" y2="69.7351" gradientUnits="userSpaceOnUse">
<stop stop-color="#B3CF62"/>
<stop offset="0.1788" stop-color="#ADCA60"/>
<stop offset="0.4093" stop-color="#9DBC5A"/>
<stop offset="0.6681" stop-color="#83A450"/>
<stop offset="0.9457" stop-color="#5E8443"/>
<stop offset="1" stop-color="#567D40"/>
</linearGradient>
<linearGradient id="paint9_linear_432_2236" x1="54.0973" y1="72.3212" x2="53.3245" y2="71.0734" gradientUnits="userSpaceOnUse">
<stop stop-color="#B3CF62"/>
<stop offset="0.257" stop-color="#B0CC61"/>
<stop offset="0.4534" stop-color="#A6C45D"/>
<stop offset="0.6298" stop-color="#96B557"/>
<stop offset="0.7944" stop-color="#7FA14F"/>
<stop offset="0.9495" stop-color="#618744"/>
<stop offset="1" stop-color="#567D40"/>
</linearGradient>
<radialGradient id="paint10_radial_432_2236" cx="0" cy="0" r="1" gradientUnits="userSpaceOnUse" gradientTransform="translate(43.1849 73.1527) rotate(-30.3041) scale(4.51779 4.51056)">
<stop stop-color="#68DAC3"/>
<stop offset="0.5584" stop-color="#3DDDBD"/>
<stop offset="0.8148" stop-color="#34BDA1"/>
<stop offset="0.9947" stop-color="#3DC8AC"/>
</radialGradient>
<radialGradient id="paint11_radial_432_2236" cx="0" cy="0" r="1" gradientUnits="userSpaceOnUse" gradientTransform="translate(49.1107 64.8247) rotate(-33.051) scale(10.6512 10.6342)">
<stop stop-color="#6CF3D8"/>
<stop offset="0.5584" stop-color="#10F4C6"/>
<stop offset="0.8148" stop-color="#34BDA1"/>
<stop offset="0.9947" stop-color="#3DC8AC"/>
</radialGradient>
<radialGradient id="paint12_radial_432_2236" cx="0" cy="0" r="1" gradientUnits="userSpaceOnUse" gradientTransform="translate(50.0744 61.1557) rotate(-33.051) scale(11.591 11.5725)">
<stop stop-color="#47EBCA"/>
<stop offset="0.5584" stop-color="#34E9C4"/>
<stop offset="0.8148" stop-color="#34BDA1"/>
<stop offset="0.9947" stop-color="#3DC8AC"/>
</radialGradient>
<radialGradient id="paint13_radial_432_2236" cx="0" cy="0" r="1" gradientUnits="userSpaceOnUse" gradientTransform="translate(58.2661 59.3991) rotate(-24.1944) scale(12.3245 12.3052)">
<stop stop-color="#53DFC3"/>
<stop offset="0.5584" stop-color="#56ECCE"/>
<stop offset="0.8148" stop-color="#38C8AA"/>
<stop offset="0.9947" stop-color="#3DC8AC"/>
</radialGradient>
<radialGradient id="paint14_radial_432_2236" cx="0" cy="0" r="1" gradientUnits="userSpaceOnUse" gradientTransform="translate(65.4984 51.729) rotate(-24.1944) scale(17.9475 17.9195)">
<stop stop-color="#57F0D1"/>
<stop offset="0.5584" stop-color="#56F3D4"/>
<stop offset="0.8148" stop-color="#33E2BE"/>
<stop offset="0.9947" stop-color="#32CDAE"/>
</radialGradient>
<radialGradient id="paint15_radial_432_2236" cx="0" cy="0" r="1" gradientUnits="userSpaceOnUse" gradientTransform="translate(71.9232 51.9157) rotate(-30.3498) scale(13.4264 13.4049)">
<stop stop-color="#A0B32D"/>
<stop offset="0.5584" stop-color="#2FB59A"/>
<stop offset="0.8148" stop-color="#34BDA1"/>
<stop offset="0.9947" stop-color="#3DC8AC"/>
</radialGradient>
<radialGradient id="paint16_radial_432_2236" cx="0" cy="0" r="1" gradientUnits="userSpaceOnUse" gradientTransform="translate(78.7378 43.7538) rotate(-30.3041) scale(14.3379 14.3149)">
<stop stop-color="#2DB398"/>
<stop offset="0.5584" stop-color="#2FB59A"/>
<stop offset="0.8148" stop-color="#34BDA1"/>
<stop offset="0.9947" stop-color="#3DC8AC"/>
</radialGradient>
<radialGradient id="paint17_radial_432_2236" cx="0" cy="0" r="1" gradientUnits="userSpaceOnUse" gradientTransform="translate(70.4045 37.1621) rotate(-30.3041) scale(13.4394 13.4179)">
<stop stop-color="#2DB398"/>
<stop offset="0.5584" stop-color="#2FB59A"/>
<stop offset="0.8148" stop-color="#34BDA1"/>
<stop offset="0.9947" stop-color="#3DC8AC"/>
</radialGradient>
<radialGradient id="paint18_radial_432_2236" cx="0" cy="0" r="1" gradientUnits="userSpaceOnUse" gradientTransform="translate(63.7735 50.0349) rotate(-30.3041) scale(4.86631 4.85853)">
<stop stop-color="#2DB398"/>
<stop offset="0.5584" stop-color="#2FB59A"/>
<stop offset="0.8148" stop-color="#34BDA1"/>
<stop offset="0.9947" stop-color="#3DC8AC"/>
</radialGradient>
<radialGradient id="paint19_radial_432_2236" cx="0" cy="0" r="1" gradientUnits="userSpaceOnUse" gradientTransform="translate(60.9738 29.9792) rotate(-20.2471) scale(14.9204 14.898)">
<stop offset="0.00531915" stop-color="#88F9E2"/>
<stop offset="0.6174" stop-color="#50F3D2"/>
<stop offset="0.8376" stop-color="#24E2BD"/>
<stop offset="0.9943" stop-color="#2DB499"/>
<stop offset="1" stop-color="#73F3D9"/>
</radialGradient>
<linearGradient id="paint20_linear_432_2236" x1="65.5445" y1="37.3512" x2="69.5247" y2="35.025" gradientUnits="userSpaceOnUse">
<stop stop-color="#E65A4A"/>
<stop offset="0.9122" stop-color="#E65C4A"/>
<stop offset="0.9947" stop-color="#E65D4A"/>
</linearGradient>
<radialGradient id="paint21_radial_432_2236" cx="0" cy="0" r="1" gradientUnits="userSpaceOnUse" gradientTransform="translate(59.8575 34.17) rotate(-21.8705) scale(2.00708 2.00401)">
<stop stop-color="white"/>
<stop offset="0.3194" stop-color="#FDFDFD"/>
<stop offset="0.4564" stop-color="#F6F6F6"/>
<stop offset="0.5586" stop-color="#E9E9E9"/>
<stop offset="0.6434" stop-color="#D7D7D7"/>
<stop offset="0.7175" stop-color="#C0C0C0"/>
<stop offset="0.7842" stop-color="#A4A4A4"/>
<stop offset="0.8452" stop-color="#828282"/>
<stop offset="0.9019" stop-color="#5A5A5A"/>
<stop offset="0.9529" stop-color="#2F2F2F"/>
<stop offset="1"/>
</radialGradient>
<radialGradient id="paint22_radial_432_2236" cx="0" cy="0" r="1" gradientUnits="userSpaceOnUse" gradientTransform="translate(59.8575 34.17) rotate(-21.8705) scale(2.00708 2.00401)">
<stop stop-color="#5F685A"/>
<stop offset="0.3732" stop-color="#616A5B"/>
<stop offset="0.5334" stop-color="#66715F"/>
<stop offset="0.6527" stop-color="#6F7E67"/>
<stop offset="0.7518" stop-color="#7D9071"/>
<stop offset="0.8384" stop-color="#8EA77E"/>
<stop offset="0.9161" stop-color="#A4C38E"/>
<stop offset="0.9858" stop-color="#BDE4A2"/>
<stop offset="1" stop-color="#C3ECA6"/>
</radialGradient>
<radialGradient id="paint23_radial_432_2236" cx="0" cy="0" r="1" gradientUnits="userSpaceOnUse" gradientTransform="translate(68.1636 26.3767) rotate(-21.8704) scale(2.00708 2.00401)">
<stop stop-color="white"/>
<stop offset="0.3194" stop-color="#FDFDFD"/>
<stop offset="0.4564" stop-color="#F6F6F6"/>
<stop offset="0.5586" stop-color="#E9E9E9"/>
<stop offset="0.6434" stop-color="#D7D7D7"/>
<stop offset="0.7175" stop-color="#C0C0C0"/>
<stop offset="0.7842" stop-color="#A4A4A4"/>
<stop offset="0.8452" stop-color="#828282"/>
<stop offset="0.9019" stop-color="#5A5A5A"/>
<stop offset="0.9529" stop-color="#2F2F2F"/>
<stop offset="1"/>
</radialGradient>
<radialGradient id="paint24_radial_432_2236" cx="0" cy="0" r="1" gradientUnits="userSpaceOnUse" gradientTransform="translate(68.1636 26.3767) rotate(-21.8704) scale(2.00708 2.00401)">
<stop stop-color="#5F685A"/>
<stop offset="0.3732" stop-color="#616A5B"/>
<stop offset="0.5334" stop-color="#66715F"/>
<stop offset="0.6527" stop-color="#6F7E67"/>
<stop offset="0.7518" stop-color="#7D9071"/>
<stop offset="0.8384" stop-color="#8EA77E"/>
<stop offset="0.9161" stop-color="#A4C38E"/>
<stop offset="0.9858" stop-color="#BDE4A2"/>
<stop offset="1" stop-color="#C3ECA6"/>
</radialGradient>
<radialGradient id="paint25_radial_432_2236" cx="0" cy="0" r="1" gradientUnits="userSpaceOnUse" gradientTransform="translate(58.5797 39.9267) rotate(-54.4563) scale(3.27414 3.27066)">
<stop stop-color="white"/>
<stop offset="0.2272" stop-color="#FCFCFC"/>
<stop offset="0.3635" stop-color="#F4F4F4"/>
<stop offset="0.4757" stop-color="#E6E6E6"/>
<stop offset="0.575" stop-color="#D2D2D2"/>
<stop offset="0.6657" stop-color="#B7B7B7"/>
<stop offset="0.7501" stop-color="#979797"/>
<stop offset="0.8297" stop-color="#707070"/>
<stop offset="0.9054" stop-color="#444444"/>
<stop offset="0.9756" stop-color="#131313"/>
<stop offset="1"/>
</radialGradient>
<radialGradient id="paint26_radial_432_2236" cx="0" cy="0" r="1" gradientUnits="userSpaceOnUse" gradientTransform="translate(58.5797 39.9267) rotate(-54.4563) scale(3.27414 3.27066)">
<stop stop-color="#E18A93"/>
<stop offset="0.3088" stop-color="#E08D93"/>
<stop offset="0.4939" stop-color="#DE9595"/>
<stop offset="0.6465" stop-color="#D9A398"/>
<stop offset="0.7812" stop-color="#D3B79C"/>
<stop offset="0.9031" stop-color="#CBD1A1"/>
<stop offset="1" stop-color="#C3ECA6"/>
</radialGradient>
<radialGradient id="paint27_radial_432_2236" cx="0" cy="0" r="1" gradientUnits="userSpaceOnUse" gradientTransform="translate(71.8644 26.1628) rotate(-54.4563) scale(3.27414 3.27066)">
<stop stop-color="white"/>
<stop offset="0.2272" stop-color="#FCFCFC"/>
<stop offset="0.3635" stop-color="#F4F4F4"/>
<stop offset="0.4757" stop-color="#E6E6E6"/>
<stop offset="0.575" stop-color="#D2D2D2"/>
<stop offset="0.6657" stop-color="#B7B7B7"/>
<stop offset="0.7501" stop-color="#979797"/>
<stop offset="0.8297" stop-color="#707070"/>
<stop offset="0.9054" stop-color="#444444"/>
<stop offset="0.9756" stop-color="#131313"/>
<stop offset="1"/>
</radialGradient>
<radialGradient id="paint28_radial_432_2236" cx="0" cy="0" r="1" gradientUnits="userSpaceOnUse" gradientTransform="translate(71.8644 26.1628) rotate(-54.4563) scale(3.27414 3.27066)">
<stop stop-color="#E18A93"/>
<stop offset="0.3088" stop-color="#E08D93"/>
<stop offset="0.4939" stop-color="#DE9595"/>
<stop offset="0.6465" stop-color="#D9A398"/>
<stop offset="0.7812" stop-color="#D3B79C"/>
<stop offset="0.9031" stop-color="#CBD1A1"/>
<stop offset="1" stop-color="#C3ECA6"/>
</radialGradient>
<linearGradient id="paint29_linear_432_2236" x1="62.6644" y1="27.0644" x2="78.1891" y2="17.991" gradientUnits="userSpaceOnUse">
<stop stop-color="#E65A4A"/>
<stop offset="0.9122" stop-color="#E65C4A"/>
<stop offset="0.9947" stop-color="#E65D4A"/>
</linearGradient>
<linearGradient id="paint30_linear_432_2236" x1="46.2895" y1="41.2842" x2="62.841" y2="31.6107" gradientUnits="userSpaceOnUse">
<stop stop-color="#E65A4A"/>
<stop offset="0.9122" stop-color="#E65C4A"/>
<stop offset="0.9947" stop-color="#E65D4A"/>
</linearGradient>
<linearGradient id="paint31_linear_432_2236" x1="62.3294" y1="31.6489" x2="65.7739" y2="29.6358" gradientUnits="userSpaceOnUse">
<stop stop-color="#E65A4A"/>
<stop offset="0.9122" stop-color="#E65C4A"/>
<stop offset="0.9947" stop-color="#E65D4A"/>
</linearGradient>
<linearGradient id="paint32_linear_432_2236" x1="47.9542" y1="33.1384" x2="52.9863" y2="30.1974" gradientUnits="userSpaceOnUse">
<stop stop-color="#E65A4A"/>
<stop offset="0.9122" stop-color="#E65C4A"/>
<stop offset="0.9947" stop-color="#E65D4A"/>
</linearGradient>
<linearGradient id="paint33_linear_432_2236" x1="62.9938" y1="19.776" x2="67.2627" y2="17.2811" gradientUnits="userSpaceOnUse">
<stop stop-color="#E65A4A"/>
<stop offset="0.9122" stop-color="#E65C4A"/>
<stop offset="0.9947" stop-color="#E65D4A"/>
</linearGradient>
<linearGradient id="paint34_linear_432_2236" x1="80.1532" y1="45.612" x2="82.3233" y2="44.3437" gradientUnits="userSpaceOnUse">
<stop offset="0.00531915" stop-color="#E65D4A"/>
<stop offset="0.0969697" stop-color="#E6594A"/>
<stop offset="0.3794" stop-color="#E6514A"/>
<stop offset="0.9947" stop-color="#E64F4A"/>
</linearGradient>
<linearGradient id="paint35_linear_432_2236" x1="80.09" y1="42.0388" x2="91.738" y2="36.3399" gradientUnits="userSpaceOnUse">
<stop stop-color="#E86050"/>
<stop offset="0.9122" stop-color="#FF8B7C"/>
<stop offset="0.9947" stop-color="#E67C6D"/>
</linearGradient>
<radialGradient id="paint36_radial_432_2236" cx="0" cy="0" r="1" gradientUnits="userSpaceOnUse" gradientTransform="translate(64.7522 36.1015) rotate(-30.3041) scale(0.0924611 0.0923103)">
<stop stop-color="#2DB398"/>
<stop offset="0.5584" stop-color="#2FB59A"/>
<stop offset="0.8148" stop-color="#34BDA1"/>
<stop offset="0.9947" stop-color="#3DC8AC"/>
</radialGradient>
</defs>
</svg>
